<svg xmlns="http://www.w3.org/2000/svg" width="1280" height="800" viewBox="0 0 1280 800">
<defs><linearGradient id="bg" x1="0" y1="0" x2="1" y2="1"><stop offset="0" stop-color="#080D1C"/><stop offset="0.62" stop-color="#0F172A"/><stop offset="1" stop-color="#111827"/></linearGradient><radialGradient id="glow" cx="50%" cy="0%" r="70%"><stop offset="0" stop-color="#F97316" stop-opacity="0.33"/><stop offset="1" stop-color="#F97316" stop-opacity="0"/></radialGradient></defs>
<rect width="1280" height="800" fill="url(#bg)"/><rect width="1280" height="800" fill="url(#glow)"/>
<circle cx="1080" cy="120" r="220" fill="#F97316" opacity="0.08"/>
<text x="70" y="86" fill="#FB923C" font-size="22" font-weight="700" letter-spacing="6" font-family="Inter,Arial">TEACHING ARTIFACT</text>
<text x="70" y="145" fill="#FFFFFF" font-size="50" font-weight="750" font-family="Inter,Arial">Base 100 Economic Comparison</text>
<text x="70" y="190" fill="#CBD5E1" font-size="25" font-family="Inter,Arial">European Economic Indicators · normalized trend interpretation</text>
<rect x="70" y="250" width="260" height="130" rx="22" fill="rgba(255,255,255,0.055)" stroke="rgba(255,255,255,0.12)"/>
<text x="96" y="288" fill="#94A3B8" font-size="24" font-family="Inter,Arial">Method</text>
<text x="96" y="342" fill="#FFFFFF" font-size="44" font-weight="700" font-family="Inter,Arial">Base 100</text><rect x="360" y="250" width="260" height="130" rx="22" fill="rgba(255,255,255,0.055)" stroke="rgba(255,255,255,0.12)"/>
<text x="386" y="288" fill="#94A3B8" font-size="24" font-family="Inter,Arial">Focus</text>
<text x="386" y="342" fill="#FFFFFF" font-size="44" font-weight="700" font-family="Inter,Arial">EU / FR</text><rect x="650" y="250" width="260" height="130" rx="22" fill="rgba(255,255,255,0.055)" stroke="rgba(255,255,255,0.12)"/>
<text x="676" y="288" fill="#94A3B8" font-size="24" font-family="Inter,Arial">Period</text>
<text x="676" y="342" fill="#FFFFFF" font-size="44" font-weight="700" font-family="Inter,Arial">2020–25</text><rect x="70" y="450" width="1080" height="230" rx="22" fill="rgba(15,23,42,0.75)" stroke="rgba(255,255,255,0.12)"/>
<text x="94" y="490" fill="#F8FAFC" font-size="26" font-weight="700" font-family="Inter,Arial">Indexed trajectory</text>
<polyline points="124.0,622.5 286.0,592.6 448.0,576.5 610.0,548.9 772.0,528.2 955.5999999999999,519.0 1096.0,500.6" fill="none" stroke="#F97316" stroke-width="7" stroke-linecap="round" stroke-linejoin="round"/>
<polyline points="124.0,622.5 286.0,592.6 448.0,576.5 610.0,548.9 772.0,528.2 955.5999999999999,519.0 1096.0,500.6" fill="none" stroke="rgba(249,115,22,0.25)" stroke-width="20" stroke-linecap="round" stroke-linejoin="round"/>
<text x="70" y="744" fill="#64748B" font-size="20" font-family="Inter,Arial">Raphaël Parmentier · Data · Statistics · AI pedagogy</text>
</svg>